<svg xmlns="http://www.w3.org/2000/svg" width="256" height="256" viewBox="0 0 100 100"><rect width="100" height="100" rx="20" fill="#3f3f74"></rect><path fill="#fff" d="M30.01 56.14L30.01 56.14Q30.01 53.15 30.14 51.53L30.14 51.53Q28.19 51.79 27.31 51.92Q26.44 52.05 24.94 52.31Q23.45 52.57 22.76 52.89Q22.08 53.22 21.30 53.67Q20.52 54.13 20.20 54.81Q19.87 55.49 19.87 56.40L19.87 56.40Q19.87 59.00 21.17 60.24Q22.47 61.47 24.49 61.47L24.49 61.47Q27.80 61.47 30.14 59.00L30.14 59.00Q30.01 58.16 30.01 56.14ZM30.27 47.56L30.27 47.56Q30.27 45.35 30.17 44.18Q30.08 43.01 29.65 41.52Q29.23 40.02 28.22 39.34Q27.22 38.66 25.53 38.66L25.53 38.66Q23.38 38.66 21.46 40.05Q19.55 41.45 18.70 43.92L18.70 43.92Q12.92 43.86 12.92 40.48L12.92 40.48Q12.92 37.68 16.85 35.80Q20.78 33.91 25.79 33.91L25.79 33.91Q31.77 33.91 34.53 36.38Q37.29 38.85 37.29 45.22L37.29 45.22Q37.29 45.42 37.23 48.28Q37.16 51.14 37.16 53.87L37.16 53.87Q37.16 61.28 38.40 64.98L38.40 64.98Q36.51 65.70 34.69 65.70L34.69 65.70Q31.05 65.70 30.34 62.71L30.34 62.71Q26.44 66.09 21.56 66.09L21.56 66.09Q17.79 66.09 15.29 63.75Q12.79 61.41 12.79 56.86L12.79 56.86Q12.79 53.22 14.35 51.46Q15.91 49.71 18.51 48.86L18.51 48.86Q22.41 47.63 30.27 47.56ZM83.57 33.91L83.57 33.91Q87.21 33.91 87.21 36.51L87.21 36.51Q87.21 40.93 83.96 49.90Q80.71 58.87 77.40 63.03L77.40 63.03Q75.25 65.63 72.52 65.63L72.52 65.63Q70.57 65.63 69.53 65.37L69.53 65.37Q68.17 58.48 65.83 51.20L65.83 51.20Q62.71 59.20 59.65 63.03L59.65 63.03Q57.57 65.63 54.84 65.63L54.84 65.63Q52.89 65.63 51.79 65.37L51.79 65.37Q50.29 57.77 46.91 48.25Q43.53 38.72 41.19 36.38L41.19 36.38Q44.05 34.17 46.33 34.17L46.33 34.17Q48.54 34.17 49.64 36.45L49.64 36.45Q50.81 38.72 53.18 45.61Q55.56 52.50 57.12 57.96L57.12 57.96Q59.07 54.52 61.02 47.92Q62.97 41.32 62.97 36.45L62.97 36.45Q62.97 35.28 62.77 34.30L62.77 34.30Q64.20 33.91 65.89 33.91L65.89 33.91Q69.53 33.91 69.53 36.51L69.53 36.51Q69.53 38.27 68.95 40.67L68.95 40.67Q72.91 51.20 74.80 57.96L74.80 57.96Q76.94 54.32 78.83 47.92Q80.71 41.52 80.71 36.45L80.71 36.45Q80.71 35.28 80.52 34.30L80.52 34.30Q81.82 33.91 83.57 33.91Z"></path></svg>